<svg xmlns="http://www.w3.org/2000/svg" xmlns:xlink="http://www.w3.org/1999/xlink" width="500" zoomAndPan="magnify" viewBox="0 0 375 374.999991" height="500" preserveAspectRatio="xMidYMid meet" version="1.0"><defs><g/><clipPath id="0a906f5a0c"><path d="M 65.832031 122.910156 L 122.082031 122.910156 L 122.082031 244.601562 L 65.832031 244.601562 Z M 65.832031 122.910156 " clip-rule="nonzero"/></clipPath></defs><g fill="#2b2b2b" fill-opacity="1"><g transform="translate(127.623656, 228.852348)"><g><path d="M 12.484375 0 L 12.484375 -77.3125 L 1.109375 -77.3125 L 1.109375 -95.703125 L 43 -95.703125 L 43 -77.3125 L 31.640625 -77.3125 L 31.640625 0 Z M 12.484375 0 "/></g></g></g><g fill="#2b2b2b" fill-opacity="1"><g transform="translate(171.742534, 228.852348)"><g><path d="M 3.34375 0 L 3.34375 -95.703125 L 21.828125 -95.703125 L 21.828125 0 Z M 3.34375 0 "/></g></g></g><g fill="#2b2b2b" fill-opacity="1"><g transform="translate(197.032903, 228.852348)"><g><path d="M 4.234375 0 L 4.234375 -95.703125 L 33.421875 -95.703125 L 41.4375 -37.328125 L 49.46875 -95.703125 L 78.875 -95.703125 L 78.875 0 L 61.390625 0 L 61.390625 -68.953125 L 50.359375 0 L 33.203125 0 L 21.5 -68.953125 L 21.5 0 Z M 4.234375 0 "/></g></g></g><g fill="#2b2b2b" fill-opacity="1"><g transform="translate(280.145768, 228.852348)"><g><path d="M 4.234375 0 L 4.234375 -95.703125 L 42.5625 -95.703125 L 42.5625 -77.203125 L 23.734375 -77.203125 L 23.734375 -58.59375 L 41.78125 -58.59375 L 41.78125 -40.546875 L 23.734375 -40.546875 L 23.734375 -18.609375 L 43.78125 -18.609375 L 43.78125 0 Z M 4.234375 0 "/></g></g></g><g clip-path="url(#0a906f5a0c)"><path fill="#2b2b2b" d="M 65.832031 122.910156 L 122.082031 122.910156 L 122.082031 244.640625 L 65.832031 244.640625 Z M 65.832031 122.910156 " fill-opacity="1" fill-rule="nonzero"/></g><g fill="#e6e6dd" fill-opacity="1"><g transform="translate(111.585686, 235.267353)"><g><path d="M 0 -1.671875 L -37.71875 -1.671875 L -37.71875 -13.171875 L -14.703125 -16.328125 L -37.71875 -19.5 L -37.71875 -31.078125 L 0 -31.078125 L 0 -24.1875 L -27.171875 -24.1875 L 0 -19.84375 L 0 -13.078125 L -27.171875 -8.46875 L 0 -8.46875 Z M 0 -1.671875 "/></g></g></g><g fill="#e6e6dd" fill-opacity="1"><g transform="translate(111.585686, 202.519103)"><g><path d="M 0.34375 -10.671875 C 0.34375 -7.628906 -0.582031 -5.316406 -2.4375 -3.734375 C -4.289062 -2.148438 -6.90625 -1.359375 -10.28125 -1.359375 L -28.234375 -1.359375 C -31.484375 -1.359375 -33.929688 -2.148438 -35.578125 -3.734375 C -37.234375 -5.316406 -38.0625 -7.628906 -38.0625 -10.671875 C -38.0625 -13.710938 -37.234375 -16.023438 -35.578125 -17.609375 C -33.929688 -19.191406 -31.484375 -19.984375 -28.234375 -19.984375 L -10.28125 -19.984375 C -6.882812 -19.984375 -4.265625 -19.191406 -2.421875 -17.609375 C -0.578125 -16.023438 0.34375 -13.710938 0.34375 -10.671875 Z M -6.578125 -10.671875 C -6.578125 -11.335938 -6.867188 -11.785156 -7.453125 -12.015625 C -8.046875 -12.253906 -8.867188 -12.375 -9.921875 -12.375 L -28.359375 -12.375 C -29.179688 -12.375 -29.847656 -12.265625 -30.359375 -12.046875 C -30.867188 -11.828125 -31.125 -11.382812 -31.125 -10.71875 C -31.125 -9.457031 -30.175781 -8.828125 -28.28125 -8.828125 L -9.875 -8.828125 C -8.789062 -8.828125 -7.96875 -8.957031 -7.40625 -9.21875 C -6.851562 -9.476562 -6.578125 -9.960938 -6.578125 -10.671875 Z M -6.578125 -10.671875 "/></g></g></g><g fill="#e6e6dd" fill-opacity="1"><g transform="translate(111.585686, 181.184455)"><g><path d="M 0 -5.140625 L -37.765625 -0.484375 L -37.765625 -7.6875 L -12.078125 -10.453125 L -37.765625 -12.90625 L -37.765625 -20.109375 L 0 -15.453125 Z M 0 -5.140625 "/></g></g></g><g fill="#e6e6dd" fill-opacity="1"><g transform="translate(111.585686, 160.596078)"><g><path d="M 0 -1.3125 L -37.71875 -1.3125 L -37.71875 -8.609375 L 0 -8.609375 Z M 0 -1.3125 "/></g></g></g><g fill="#e6e6dd" fill-opacity="1"><g transform="translate(111.585686, 150.631124)"><g><path d="M 0 -1.671875 L -37.71875 -1.671875 L -37.71875 -16.765625 L -30.421875 -16.765625 L -30.421875 -9.359375 L -23.09375 -9.359375 L -23.09375 -16.46875 L -15.984375 -16.46875 L -15.984375 -9.359375 L -7.328125 -9.359375 L -7.328125 -17.25 L 0 -17.25 Z M 0 -1.671875 "/></g></g></g></svg>